<svg width="260" height="58" viewBox="0 0 260 58" fill="none" xmlns="http://www.w3.org/2000/svg">
<path d="M248.471 2.97329C248.471 2.97329 247.793 0 244.739 0C243.107 0 241.717 1.01803 241.168 2.4562L223.538 37.1823H222.665L205.1 2.56931C204.567 1.06651 203.161 0 201.497 0C198.459 0 197.893 2.4562 197.893 2.4562L186.291 45.165C186.291 45.165 186 46.4416 186 47.1526C186 50.4652 188.699 53.1638 192.011 53.1638C194.871 53.1638 197.247 51.16 197.861 48.4938L203.791 30.0238H204.664L216.234 52.679C216.282 52.7921 216.347 52.9052 216.395 53.0184C216.395 53.0184 218.415 57.2682 223.085 57.2682C227.497 57.2682 229.711 53.1476 229.711 53.1476C229.791 52.986 229.888 52.8406 229.953 52.679L250.928 12.0709C250.928 12.0709 248.471 3.02177 248.455 2.98945L248.471 2.97329Z" fill="#FFB800"/>
<path d="M259.281 45.4396H259.314L259.265 45.2942C259.249 45.1649 259.2 45.0518 259.168 44.9387L254.741 28.634L246.984 43.4682H247.016C246.516 44.4054 246.208 45.4396 246.208 46.5707C246.208 50.2066 249.166 53.1637 252.801 53.1637C256.437 53.1637 259.394 50.2066 259.394 46.5707C259.394 46.1829 259.346 45.8274 259.281 45.4558V45.4396Z" fill="#FFB800"/>
<path d="M155.471 2.97329C155.471 2.97329 154.793 0 151.739 0C150.107 0 148.717 1.01803 148.168 2.4562L130.538 37.1823H129.665L112.1 2.56931C111.567 1.06651 110.161 0 108.497 0C105.459 0 104.893 2.4562 104.893 2.4562L93.2909 45.165C93.2909 45.165 93 46.4416 93 47.1526C93 50.4652 95.6986 53.1638 99.0112 53.1638C101.871 53.1638 104.247 51.16 104.861 48.4938L110.791 30.0238H111.664L123.234 52.679C123.282 52.7921 123.347 52.9052 123.395 53.0184C123.395 53.0184 125.415 57.2682 130.085 57.2682C134.497 57.2682 136.711 53.1476 136.711 53.1476C136.791 52.986 136.888 52.8406 136.953 52.679L157.928 12.0709C157.928 12.0709 155.471 3.02177 155.455 2.98945L155.471 2.97329Z" fill="#FFB800"/>
<path d="M166.282 45.4396H166.314L166.265 45.2942C166.249 45.1649 166.201 45.0518 166.168 44.9387L161.741 28.634L153.984 43.4682H154.017C153.516 44.4054 153.209 45.4396 153.209 46.5707C153.209 50.2066 156.166 53.1637 159.802 53.1637C163.438 53.1637 166.395 50.2066 166.395 46.5707C166.395 46.1829 166.346 45.8274 166.282 45.4558V45.4396Z" fill="#FFB800"/>
<path d="M62.4715 2.97329C62.4715 2.97329 61.7928 0 58.7387 0C57.1066 0 55.7169 1.01803 55.1675 2.4562L37.5378 37.1823H36.6652L19.1002 2.56931C18.5669 1.06651 17.1611 0 15.4967 0C12.4587 0 11.8932 2.4562 11.8932 2.4562L0.290866 45.165C0.290866 45.165 0 46.4416 0 47.1526C0 50.4652 2.69859 53.1638 6.01122 53.1638C8.8714 53.1638 11.2468 51.16 11.8609 48.4938L17.7913 30.0238H18.6639L30.2339 52.679C30.2823 52.7921 30.347 52.9052 30.3955 53.0184C30.3955 53.0184 32.4154 57.2682 37.0854 57.2682C41.4968 57.2682 43.7106 53.1476 43.7106 53.1476C43.7914 52.986 43.8884 52.8406 43.953 52.679L64.9277 12.0709C64.9277 12.0709 62.4715 3.02177 62.4553 2.98945L62.4715 2.97329Z" fill="#FFB800"/>
<path d="M73.2815 45.4396H73.3139L73.2654 45.2942C73.2492 45.1649 73.2007 45.0518 73.1684 44.9387L68.7408 28.634L60.9844 43.4682H61.0167C60.5158 44.4054 60.2087 45.4396 60.2087 46.5707C60.2087 50.2066 63.1659 53.1637 66.8017 53.1637C70.4375 53.1637 73.3947 50.2066 73.3947 46.5707C73.3947 46.1829 73.3462 45.8274 73.2815 45.4558V45.4396Z" fill="#FFB800"/>
</svg>
