<svg width="41" height="38" viewBox="0 0 41 38" fill="none" xmlns="http://www.w3.org/2000/svg">
<path d="M33.3 37.65C31.9 37.65 30.05 35.85 27.75 32.25C25.45 28.65 24.3 25.45 24.3 22.65C24.3 19.75 26.15 15.3 29.85 9.29999C33.65 3.29999 36.25 0.299994 37.65 0.299994C37.85 0.299994 38.25 0.549994 38.85 1.04999C39.45 1.54999 39.75 1.99999 39.75 2.39999C39.75 2.7 38.8 4.3 36.9 7.19999C35 9.99999 34.05 12.55 34.05 14.85C34.05 17.15 35.1 19.85 37.2 22.95C39.4 26.05 40.5 27.9 40.5 28.5C40.5 29.1 40.1 30.1 39.3 31.5C36.8 35.6 34.8 37.65 33.3 37.65ZM9.9 37.65C8.5 37.65 6.65 35.85 4.35 32.25C2.05 28.65 0.9 25.45 0.9 22.65C0.9 19.75 2.75 15.3 6.45 9.29999C10.25 3.29999 12.85 0.299994 14.25 0.299994C14.45 0.299994 14.85 0.549994 15.45 1.04999C16.05 1.54999 16.35 1.99999 16.35 2.39999C16.35 2.7 15.4 4.3 13.5 7.19999C11.6 9.99999 10.65 12.55 10.65 14.85C10.65 17.15 11.7 19.85 13.8 22.95C16 26.05 17.1 27.9 17.1 28.5C17.1 29.1 16.7 30.1 15.9 31.5C13.4 35.6 11.4 37.65 9.9 37.65Z" fill="#FFB800"/>
</svg>
